<svg width="54" height="305" viewBox="0 0 54 305" fill="none" xmlns="http://www.w3.org/2000/svg">
<path fill-rule="evenodd" clip-rule="evenodd" d="M126.204 10.123C95.966 3.77798 57.2535 -9.97159 35.4154 11.9199C12.1548 35.2373 35.1198 76.3354 28.0396 108.528C23.0052 131.418 -3.08719 148.377 0.302734 171.569C3.69247 194.76 29.1496 206.678 44.9172 223.994C60.2035 240.781 72.4396 259.469 91.5247 271.749C116.055 287.532 141.503 306.88 170.587 304.853C201.352 302.71 236.287 288.488 249.803 260.721C263.55 232.48 239.365 200.623 236.556 169.33C234.55 146.971 242.751 124.655 235.679 103.353C228.123 80.5911 213.694 61.0374 195.45 45.5004C175.301 28.3413 152.089 15.5544 126.204 10.123Z" fill="#0146B1"/>
</svg>
