<svg width="53" height="305" viewBox="0 0 53 305" fill="none" xmlns="http://www.w3.org/2000/svg">
<path fill-rule="evenodd" clip-rule="evenodd" d="M-73.2043 10.123C-42.966 3.77798 -4.25351 -9.97159 17.5846 11.9199C40.8452 35.2373 17.8802 76.3354 24.9604 108.528C29.9948 131.418 56.0872 148.377 52.6973 171.569C49.3075 194.76 23.8504 206.678 8.08276 223.994C-7.20351 240.781 -19.4396 259.469 -38.5247 271.749C-63.0546 287.532 -88.5033 306.88 -117.587 304.853C-148.352 302.71 -183.287 288.488 -196.803 260.721C-210.55 232.48 -186.365 200.623 -183.556 169.33C-181.55 146.971 -189.751 124.655 -182.679 103.353C-175.123 80.5911 -160.694 61.0374 -142.45 45.5004C-122.301 28.3413 -99.0885 15.5544 -73.2043 10.123Z" fill="#FE9F0F"/>
</svg>
