<svg width="94" height="94" viewBox="0 0 94 94" fill="none" xmlns="http://www.w3.org/2000/svg">
<circle cx="47" cy="47" r="47" fill="#E1E2EC"/>
<path d="M34.4 32.6001C32.6496 32.6001 30.9708 33.2955 29.7331 34.5332C28.4953 35.7709 27.8 37.4497 27.8 39.2001V42.2001H66.2V39.2001C66.2 37.4497 65.5046 35.7709 64.2669 34.5332C63.0292 33.2955 61.3504 32.6001 59.6 32.6001H34.4ZM66.2 44.6001H27.8V54.8001C27.8 56.5505 28.4953 58.2293 29.7331 59.467C30.9708 60.7047 32.6496 61.4001 34.4 61.4001H59.6C61.3504 61.4001 63.0292 60.7047 64.2669 59.467C65.5046 58.2293 66.2 56.5505 66.2 54.8001V44.6001ZM55.4 54.2001H60.2C60.5182 54.2001 60.8235 54.3265 61.0485 54.5516C61.2736 54.7766 61.4 55.0818 61.4 55.4001C61.4 55.7184 61.2736 56.0236 61.0485 56.2486C60.8235 56.4737 60.5182 56.6001 60.2 56.6001H55.4C55.0817 56.6001 54.7765 56.4737 54.5515 56.2486C54.3264 56.0236 54.2 55.7184 54.2 55.4001C54.2 55.0818 54.3264 54.7766 54.5515 54.5516C54.7765 54.3265 55.0817 54.2001 55.4 54.2001Z" fill="#0146B1"/>
</svg>
