<svg width="86" height="86" viewBox="0 0 86 86" fill="none" xmlns="http://www.w3.org/2000/svg">
<circle cx="43" cy="43" r="43" fill="#E1E2EC"/>
<path d="M62.25 43L57.98 38.1175L58.575 31.66L52.2575 30.225L48.95 24.625L43 27.18L37.05 24.625L33.7425 30.2075L27.425 31.625L28.02 38.1L23.75 43L28.02 47.8825L27.425 54.3575L33.7425 55.7925L37.05 61.375L43 58.8025L48.95 61.3575L52.2575 55.775L58.575 54.34L57.98 47.8825L62.25 43ZM39.6575 51.26L33.0075 44.5925L35.5975 42.0025L39.6575 46.08L49.895 35.8075L52.485 38.3975L39.6575 51.26Z" fill="#0146B1"/>
</svg>
