<svg width="367" height="88" viewBox="0 0 367 88" fill="none" xmlns="http://www.w3.org/2000/svg">
<path d="M1 84.4194L3.61184 82.9896C6.22369 81.5597 11.4474 78.7 16.6711 76.6906C21.8948 74.6813 27.1184 73.5224 32.3421 75.9901C37.5658 78.4578 42.7895 84.552 48.0132 86.354C53.2369 88.1559 58.4606 85.6656 63.6843 85.196C68.908 84.7265 74.1317 86.2777 79.3553 83.2781C84.579 80.2784 89.8027 72.728 95.0264 65.0908C100.25 57.4535 105.474 49.7296 110.697 44.9975C115.921 40.2654 121.145 38.5251 126.369 44.4424C131.592 50.3597 136.816 63.9344 142.04 63.4092C147.263 62.8839 152.487 48.2586 157.711 44.9389C162.934 41.6193 168.158 49.6052 173.382 53.5525C178.605 57.4997 183.829 57.4082 189.053 54.4194C194.277 51.4307 199.5 45.5447 204.724 43.8718C209.948 42.1988 215.171 44.7389 220.395 46.126C225.619 47.5131 230.842 47.7472 236.066 49.4207C241.29 51.0942 246.513 54.2071 251.737 53.298C256.961 52.389 262.184 47.4581 267.408 41.851C272.632 36.244 277.856 29.9606 283.079 29.2278C288.303 28.495 293.527 33.3127 298.75 29.9477C303.974 26.5828 309.198 15.0353 314.421 8.7644C319.645 2.49347 324.869 1.49911 327.481 1.00193L367 1" stroke="#FE9F0F" stroke-width="1.5"/>
</svg>
