<svg width="86" height="86" viewBox="0 0 86 86" fill="none" xmlns="http://www.w3.org/2000/svg">
<circle cx="43" cy="43" r="43" fill="#E1E2EC"/>
<g clip-path="url(#clip0_174_4)">
<path fill-rule="evenodd" clip-rule="evenodd" d="M39.85 27.25C39.85 25.3162 41.068 23.75 43 23.75C44.9338 23.75 46.15 25.3162 46.15 27.25L46.5 41.25C46.5 40.613 47.375 31.345 47.375 30.75C47.375 29 48.4163 27.25 50.35 27.25C52.2838 27.25 53.5 28.8162 53.5 30.75V43.469C53.6453 43.385 54.025 36.7385 54.025 36C54.025 34.25 54.4853 32.5 56.125 32.5C57.7665 32.5 58.75 34.0662 58.75 36V46.5C58.75 50.213 57.275 53.774 54.6495 56.3995C52.024 59.025 48.463 60.5 44.75 60.5H43.5705C40.9707 60.4999 38.4223 59.7759 36.2108 58.4091C33.9993 57.0424 32.212 55.0868 31.0493 52.7615L26.0758 42.8145C25.4388 41.5405 25.9288 39.8955 27.3358 39.2725C28.076 38.9452 28.9055 38.7615 29.686 39.01C31.625 39.6278 31.338 40.515 32.5 41.6175V30.75C32.5 28.8162 33.7163 27.25 35.65 27.25C37.4 27.25 38.4658 29.5512 38.625 30.75C38.8438 32.3915 39.5 40.6095 39.5 41.2465L39.85 27.25Z" fill="#FE9F0F"/>
</g>
<defs>
<clipPath id="clip0_174_4">
<rect width="42" height="42" fill="white" transform="translate(22 22)"/>
</clipPath>
</defs>
</svg>
