<svg width="86" height="86" viewBox="0 0 86 86" fill="none" xmlns="http://www.w3.org/2000/svg">
<circle cx="43" cy="43" r="43" fill="#E1E2EC"/>
<path d="M62.25 39.5C62.25 38.5717 61.8812 37.6815 61.2249 37.0251C60.5685 36.3687 59.6783 36 58.75 36H47.69L49.37 28.0025C49.405 27.8275 49.4225 27.635 49.4225 27.4425C49.4225 26.725 49.125 26.06 48.6525 25.5875L46.7975 23.75L35.2825 35.265C34.635 35.9125 34.25 36.7875 34.25 37.75V55.25C34.25 56.1783 34.6187 57.0685 35.2751 57.7249C35.9315 58.3812 36.8217 58.75 37.75 58.75H53.5C54.9525 58.75 56.195 57.875 56.72 56.615L62.005 44.2775C62.1625 43.875 62.25 43.455 62.25 43V39.5ZM23.75 58.75H30.75V37.75H23.75V58.75Z" fill="#0146B1"/>
</svg>
