<svg width="94" height="94" viewBox="0 0 94 94" fill="none" xmlns="http://www.w3.org/2000/svg">
<circle cx="47" cy="47" r="47" fill="#E1E2EC"/>
<path d="M39 47H55M41 39H35C32.8783 39 30.8434 39.8429 29.3431 41.3431C27.8429 42.8434 27 44.8783 27 47C27 49.1217 27.8429 51.1566 29.3431 52.6569C30.8434 54.1571 32.8783 55 35 55H41M53 39H59C61.1217 39 63.1566 39.8429 64.6569 41.3431C66.1571 42.8434 67 44.8783 67 47C67 49.1217 66.1571 51.1566 64.6569 52.6569C63.1566 54.1571 61.1217 55 59 55H53" stroke="#0146B1" stroke-width="3.5" stroke-linecap="round" stroke-linejoin="round"/>
</svg>
