<svg width="86" height="86" viewBox="0 0 86 86" fill="none" xmlns="http://www.w3.org/2000/svg">
<circle cx="43" cy="43" r="43" fill="#E1E2EC"/>
<path d="M57.4375 43.3546C57.4441 43.1183 57.4441 42.8821 57.4375 42.6458L59.8853 39.5877C60.0137 39.4271 60.1025 39.2387 60.1447 39.0375C60.1869 38.8363 60.1812 38.628 60.1281 38.4294C59.7261 36.9213 59.1259 35.4731 58.3431 34.1228C58.2405 33.9461 58.0981 33.7958 57.9272 33.6839C57.7564 33.572 57.5617 33.5015 57.3588 33.478L53.4672 33.0449C53.3053 32.8743 53.1413 32.7102 52.975 32.5527L52.5156 28.6513C52.492 28.4482 52.4213 28.2534 52.309 28.0825C52.1968 27.9116 52.0462 27.7693 51.8692 27.6669C50.519 26.8847 49.0708 26.2856 47.5626 25.8852C47.364 25.8321 47.1557 25.8265 46.9545 25.8686C46.7533 25.9108 46.5649 25.9997 46.4043 26.128L43.3544 28.5627H42.6456L39.5875 26.1198C39.4269 25.9915 39.2385 25.9026 39.0373 25.8604C38.8361 25.8183 38.6278 25.8239 38.4292 25.877C36.9211 26.279 35.4729 26.8792 34.1226 27.662C33.9459 27.7646 33.7956 27.907 33.6837 28.0779C33.5718 28.2488 33.5013 28.4434 33.4778 28.6464L33.0447 32.5445C32.8741 32.7075 32.71 32.8715 32.5525 33.0367L28.6511 33.4846C28.448 33.5082 28.2532 33.5789 28.0823 33.6912C27.9114 33.8034 27.7691 33.954 27.6667 34.131C26.8847 35.4815 26.285 36.9296 25.8834 38.4376C25.8305 38.6363 25.8251 38.8447 25.8676 39.0459C25.91 39.2471 25.9992 39.4355 26.1278 39.5959L28.5625 42.6458V43.3546L26.1196 46.4127C25.9913 46.5733 25.9024 46.7617 25.8602 46.9629C25.8181 47.1641 25.8237 47.3724 25.8768 47.571C26.2788 49.0791 26.879 50.5273 27.6618 51.8776C27.7644 52.0543 27.9068 52.2046 28.0777 52.3165C28.2486 52.4284 28.4432 52.4989 28.6462 52.5224L32.5377 52.9555C32.7007 53.1261 32.8648 53.2902 33.0299 53.4477L33.4844 57.3491C33.508 57.5522 33.5787 57.747 33.691 57.9179C33.8032 58.0888 33.9538 58.2311 34.1308 58.3335C35.4813 59.1155 36.9294 59.7152 38.4374 60.1168C38.6361 60.1697 38.8445 60.1751 39.0457 60.1326C39.2469 60.0902 39.4353 60.001 39.5957 59.8724L42.6456 57.4377C42.8819 57.4443 43.1181 57.4443 43.3544 57.4377L46.4125 59.8855C46.5731 60.0139 46.7615 60.1027 46.9627 60.1449C47.1639 60.1871 47.3722 60.1814 47.5708 60.1283C49.0792 59.727 50.5274 59.1268 51.8774 58.3433C52.0541 58.2407 52.2044 58.0983 52.3163 57.9274C52.4282 57.7566 52.4987 57.5619 52.5222 57.359L52.9553 53.4674C53.1259 53.3055 53.29 53.1415 53.4475 52.9752L57.3489 52.5158C57.552 52.4922 57.7468 52.4214 57.9177 52.3092C58.0886 52.197 58.2309 52.0464 58.3333 51.8694C59.1153 50.5189 59.715 49.0708 60.1166 47.5628C60.1695 47.3641 60.1749 47.1557 60.1324 46.9545C60.09 46.7533 60.0008 46.5649 59.8722 46.4045L57.4375 43.3546ZM43 49.5627C41.7021 49.5627 40.4333 49.1778 39.3541 48.4567C38.2749 47.7356 37.4337 46.7107 36.937 45.5116C36.4403 44.3124 36.3104 42.9929 36.5636 41.7199C36.8168 40.4469 37.4418 39.2776 38.3596 38.3598C39.2774 37.442 40.4467 36.817 41.7197 36.5638C42.9927 36.3106 44.3122 36.4405 45.5114 36.9372C46.7105 37.4339 47.7354 38.2751 48.4565 39.3543C49.1776 40.4335 49.5625 41.7023 49.5625 43.0002C49.5625 44.7407 48.8711 46.4099 47.6404 47.6406C46.4097 48.8713 44.7405 49.5627 43 49.5627Z" fill="#FE9F0F"/>
</svg>
