<svg width="94" height="94" viewBox="0 0 94 94" fill="none" xmlns="http://www.w3.org/2000/svg">
<circle cx="47" cy="47" r="47" fill="#E1E2EC"/>
<path d="M47 27.5C43.1433 27.5 39.3731 28.6437 36.1664 30.7863C32.9596 32.929 30.4603 35.9745 28.9844 39.5377C27.5084 43.1008 27.1223 47.0216 27.8747 50.8043C28.6271 54.5869 30.4843 58.0615 33.2114 60.7886C35.9385 63.5157 39.4131 65.3729 43.1957 66.1253C46.9784 66.8777 50.8992 66.4916 54.4623 65.0156C58.0255 63.5397 61.071 61.0404 63.2137 57.8336C65.3563 54.6269 66.5 50.8567 66.5 47C66.4945 41.83 64.4383 36.8732 60.7826 33.2174C57.1268 29.5617 52.17 27.5055 47 27.5ZM41.2006 52.2013C41.111 52.3796 40.9866 52.5382 40.8349 52.6679C40.6831 52.7975 40.507 52.8956 40.3169 52.9564C40.1268 53.0171 39.9264 53.0393 39.7276 53.0216C39.5288 53.0039 39.3355 52.9467 39.1591 52.8534C38.9826 52.7601 38.8266 52.6325 38.7001 52.4781C38.5736 52.3236 38.4792 52.1455 38.4224 51.9542C38.3657 51.7628 38.3476 51.5621 38.3694 51.3637C38.3912 51.1653 38.4524 50.9732 38.5494 50.7987C39.1771 49.631 39.5057 48.3258 39.5057 47C39.5057 45.6742 39.1771 44.369 38.5494 43.2013C38.3731 42.8506 38.3413 42.4449 38.4607 42.0711C38.5801 41.6972 38.8412 41.3851 39.1881 41.2016C39.535 41.0181 39.94 40.9778 40.3163 41.0895C40.6925 41.2011 41.01 41.4557 41.2006 41.7987C42.0483 43.4014 42.4915 45.187 42.4915 47C42.4915 48.813 42.0483 50.5986 41.2006 52.2013ZM46.4506 55.2013C46.36 55.3786 46.235 55.5361 46.0829 55.6647C45.9308 55.7932 45.7546 55.8902 45.5647 55.9499C45.3747 56.0096 45.1747 56.0309 44.9764 56.0125C44.7781 55.9942 44.5855 55.9365 44.4097 55.8429C44.2339 55.7493 44.0785 55.6216 43.9526 55.4673C43.8267 55.313 43.7328 55.1352 43.6763 54.9442C43.6199 54.7532 43.602 54.5529 43.6238 54.355C43.6455 54.157 43.7065 53.9654 43.8031 53.7913C44.9175 51.6997 45.5004 49.3662 45.5004 46.9963C45.5004 44.6263 44.9175 42.2928 43.8031 40.2013C43.7065 40.0271 43.6455 39.8355 43.6238 39.6375C43.602 39.4396 43.6199 39.2393 43.6763 39.0483C43.7328 38.8573 43.8267 38.6795 43.9526 38.5252C44.0785 38.3709 44.2339 38.2432 44.4097 38.1496C44.5855 38.056 44.7781 37.9983 44.9764 37.98C45.1747 37.9616 45.3747 37.9829 45.5647 38.0426C45.7546 38.1023 45.9308 38.1993 46.0829 38.3278C46.235 38.4564 46.36 38.6139 46.4506 38.7913C47.7976 41.3171 48.502 44.1358 48.5017 46.9984C48.5014 49.8609 47.7963 52.6794 46.4487 55.205L46.4506 55.2013ZM51.7006 58.2013C51.4971 58.5187 51.1814 58.7477 50.8165 58.8429C50.4517 58.938 50.0643 58.8923 49.7317 58.7147C49.399 58.5372 49.1455 58.2408 49.0214 57.8847C48.8974 57.5286 48.9121 57.1389 49.0625 56.7931C50.6758 53.781 51.52 50.417 51.52 47C51.52 43.583 50.6758 40.219 49.0625 37.2069C48.875 36.8558 48.8347 36.4446 48.9504 36.0638C49.0661 35.683 49.3283 35.3637 49.6794 35.1763C50.0305 34.9888 50.4416 34.9484 50.8224 35.0641C51.2033 35.1798 51.5225 35.442 51.71 35.7931C53.5535 39.2412 54.5172 43.0912 54.5156 47.0012C54.514 50.9112 53.547 54.7603 51.7006 58.2069V58.2013Z" fill="#0146B1"/>
</svg>
